<svg id="svg" xmlns="http://www.w3.org/2000/svg" xmlns:xlink="http://www.w3.org/1999/xlink" width="400" height="400" viewBox="0, 0, 400,400"><g id="svgg"><path id="path0" d="M0.000 200.000 L 0.000 400.000 200.000 400.000 L 400.000 400.000 400.000 200.000 L 400.000 0.000 200.000 0.000 L 0.000 0.000 0.000 200.000 M202.813 56.447 C 229.172 62.524,228.873 62.047,296.359 205.767 C 331.018 279.578,359.375 340.819,359.375 341.859 C 359.375 344.571,308.477 344.107,304.444 341.358 C 301.481 339.338,168.750 59.023,168.750 54.785 C 168.750 52.090,187.985 53.029,202.813 56.447 M159.151 138.927 L 172.554 168.479 132.596 253.771 C 110.619 300.681,91.131 340.096,89.288 341.358 C 81.319 346.819,33.584 344.075,35.766 338.281 C 41.607 322.767,142.448 109.497,143.968 109.441 C 144.948 109.404,151.780 122.673,159.151 138.927 " stroke="none" fill="#000000" fill-rule="evenodd"></path></g></svg>