<svg id="svg" xmlns="http://www.w3.org/2000/svg" xmlns:xlink="http://www.w3.org/1999/xlink" width="400" height="400" viewBox="0, 0, 400,400"><g id="svgg"><path id="path0" d="M0.000 200.000 L 0.000 400.000 200.000 400.000 L 400.000 400.000 400.000 200.000 L 400.000 0.000 200.000 0.000 L 0.000 0.000 0.000 200.000 M218.561 80.470 C 247.996 133.230,286.121 200.083,310.681 242.008 C 323.713 264.252,334.375 283.237,334.375 284.195 C 334.375 285.153,273.906 285.938,200.000 285.938 C 126.094 285.938,65.625 285.539,65.625 285.052 C 65.625 282.118,84.723 247.862,111.429 202.895 C 128.346 174.409,154.844 128.358,170.313 100.560 C 185.781 72.761,199.141 50.014,200.000 50.009 C 200.859 50.005,209.212 63.712,218.561 80.470 M175.889 152.344 C 133.656 227.409,124.043 247.168,127.887 251.012 C 132.728 255.853,266.899 256.226,271.714 251.411 C 274.529 248.596,245.952 193.956,206.825 127.344 C 199.008 114.036,196.134 116.358,175.889 152.344 M200.000 320.211 C 255.859 320.189,308.945 319.100,317.969 317.790 L 334.375 315.410 334.375 332.920 L 334.375 350.430 308.594 348.020 C 275.397 344.917,114.246 344.977,86.719 348.102 L 65.625 350.497 65.625 332.954 L 65.625 315.410 82.031 317.831 C 91.055 319.162,144.141 320.233,200.000 320.211 " stroke="none" fill="#000000" fill-rule="evenodd"></path></g></svg>